<svg width="632" height="406" viewBox="0 0 632 406" fill="none" xmlns="http://www.w3.org/2000/svg">
<g clip-path="url(#clip0)">
<path d="M100.151 406C144.401 406 180.272 400.24 180.272 393.135C180.272 386.03 144.401 380.27 100.151 380.27C55.9017 380.27 20.0303 386.03 20.0303 393.135C20.0303 400.24 55.9017 406 100.151 406Z" fill="#F2F2F2"/>
<path d="M106.43 398.52C150.679 398.52 186.551 392.76 186.551 385.655C186.551 378.55 150.679 372.79 106.43 372.79C62.1799 372.79 26.3084 378.55 26.3084 385.655C26.3084 392.76 62.1799 398.52 106.43 398.52Z" stroke="#3F3D56" stroke-miterlimit="10"/>
<path d="M276.035 16.4554H62.387C54.8446 16.4554 48.7304 22.5744 48.7304 30.1225V146.399C48.7304 153.947 54.8446 160.066 62.387 160.066H276.035C283.577 160.066 289.692 153.947 289.692 146.399V30.1225C289.692 22.5744 283.577 16.4554 276.035 16.4554Z" fill="#FF828E"/>
<path d="M592.334 131.344H378.686C371.144 131.344 365.029 137.463 365.029 145.011V261.288C365.029 268.836 371.144 274.955 378.686 274.955H592.334C599.876 274.955 605.991 268.836 605.991 261.288V145.011C605.991 137.463 599.876 131.344 592.334 131.344Z" fill="#FFC1C7"/>
<path d="M257.5 0.299187H43.8515C36.3092 0.299187 30.1949 6.41815 30.1949 13.9663V130.243C30.1949 137.791 36.3092 143.91 43.8515 143.91H257.5C265.042 143.91 271.156 137.791 271.156 130.243V13.9663C271.156 6.41815 265.042 0.299187 257.5 0.299187Z" stroke="#3F3D56" stroke-miterlimit="10"/>
<path d="M573.798 115.188H360.15C352.608 115.188 346.494 121.307 346.494 128.855V245.132C346.494 252.68 352.608 258.799 360.15 258.799H573.798C581.341 258.799 587.455 252.68 587.455 245.132V128.855C587.455 121.307 581.341 115.188 573.798 115.188Z" stroke="#3F3D56" stroke-miterlimit="10"/>
<path d="M573.93 42.7586C571.382 42.9027 568.924 43.7544 566.831 45.2183C564.739 46.6823 563.096 48.7005 562.086 51.0467C559.124 58.2116 562.938 66.6278 568.662 71.8525C574.387 77.0772 581.741 80.0636 588.422 83.989C597.397 89.2615 605.461 96.5806 609.952 105.976C614.442 115.371 614.92 127.009 609.641 135.984C604.742 144.315 595.834 149.301 587.338 153.9" stroke="#3F3D56" stroke-miterlimit="10"/>
<path d="M581.476 48.4687C587.255 48.4687 591.939 46.1915 591.939 43.3825C591.939 40.5734 587.255 38.2962 581.476 38.2962C575.697 38.2962 571.012 40.5734 571.012 43.3825C571.012 46.1915 575.697 48.4687 581.476 48.4687Z" fill="#FF7A87"/>
<path d="M589.847 81.9779C595.626 81.9779 600.31 79.7007 600.31 76.8917C600.31 74.0826 595.626 71.8055 589.847 71.8055C584.068 71.8055 579.383 74.0826 579.383 76.8917C579.383 79.7007 584.068 81.9779 589.847 81.9779Z" fill="#FF7A87"/>
<path d="M570.713 87.3633C576.492 87.3633 581.177 85.0861 581.177 82.2771C581.177 79.468 576.492 77.1909 570.713 77.1909C564.934 77.1909 560.25 79.468 560.25 82.2771C560.25 85.0861 564.934 87.3633 570.713 87.3633Z" fill="#FF7A87"/>
<path d="M600.609 115.487C606.388 115.487 611.073 113.21 611.073 110.401C611.073 107.592 606.388 105.315 600.609 105.315C594.83 105.315 590.146 107.592 590.146 110.401C590.146 113.21 594.83 115.487 600.609 115.487Z" fill="#FF828E"/>
<path d="M621.536 115.487C627.315 115.487 632 113.21 632 110.401C632 107.592 627.315 105.315 621.536 105.315C615.758 105.315 611.073 107.592 611.073 110.401C611.073 113.21 615.758 115.487 621.536 115.487Z" fill="#FF7A87"/>
<path d="M13.6808 272.536C11.132 272.68 8.67378 273.532 6.58165 274.996C4.48952 276.46 2.84623 278.478 1.83604 280.824C-1.12575 287.989 2.68777 296.405 8.41255 301.63C14.1373 306.855 21.4912 309.841 28.1727 313.767C37.1472 319.039 45.2115 326.358 49.7019 335.753C54.1924 345.148 54.67 356.786 49.3917 365.762C44.4925 374.093 35.5842 379.079 27.088 383.677" stroke="#3F3D56" stroke-miterlimit="10"/>
<path d="M21.2261 278.246C27.005 278.246 31.6897 275.969 31.6897 273.16C31.6897 270.351 27.005 268.074 21.2261 268.074C15.4472 268.074 10.7625 270.351 10.7625 273.16C10.7625 275.969 15.4472 278.246 21.2261 278.246Z" fill="#FF828E"/>
<path d="M29.597 311.755C35.3758 311.755 40.0605 309.478 40.0605 306.669C40.0605 303.86 35.3758 301.583 29.597 301.583C23.8181 301.583 19.1334 303.86 19.1334 306.669C19.1334 309.478 23.8181 311.755 29.597 311.755Z" fill="#FF828E"/>
<path d="M10.4636 317.141C16.2424 317.141 20.9272 314.864 20.9272 312.055C20.9272 309.245 16.2424 306.968 10.4636 306.968C4.6847 306.968 0 309.245 0 312.055C0 314.864 4.6847 317.141 10.4636 317.141Z" fill="#FF828E"/>
<path d="M40.3595 345.265C46.1384 345.265 50.8231 342.987 50.8231 340.178C50.8231 337.369 46.1384 335.092 40.3595 335.092C34.5806 335.092 29.8959 337.369 29.8959 340.178C29.8959 342.987 34.5806 345.265 40.3595 345.265Z" fill="#FF828E"/>
<path d="M61.2867 345.265C67.0655 345.265 71.7502 342.987 71.7502 340.178C71.7502 337.369 67.0655 335.092 61.2867 335.092C55.5078 335.092 50.8231 337.369 50.8231 340.178C50.8231 342.987 55.5078 345.265 61.2867 345.265Z" fill="#FF828E"/>
<path d="M153.067 162.46C153.067 162.46 154.263 171.436 151.273 175.026C148.284 178.616 143.5 202.551 143.5 202.551V216.912C143.5 216.912 162.036 189.985 165.623 179.214C169.211 168.444 165.623 160.066 165.623 160.066L153.067 162.46Z" fill="#FFC1C7"/>
<path d="M151.273 118.18L151.526 118.464C154.614 121.939 157.037 125.953 158.675 130.304C162.6 140.736 171.038 166.449 168.015 169.042C163.83 172.632 151.871 175.026 151.273 174.427C150.675 173.829 138.717 136.73 138.717 136.73L151.273 118.18Z" fill="#3F3D56"/>
<path d="M131.841 372.491C131.841 372.491 146.191 375.483 146.789 372.491C147.171 370.631 147.774 368.823 148.583 367.105C148.583 367.105 161.589 367.648 158.193 379.059C157.853 380.184 157.11 381.143 156.106 381.753C153.008 383.65 145.712 388.124 142.006 390.442C139.22 392.185 135.217 390.883 132.36 389.491C131.336 388.989 130.507 388.162 130.003 387.138C129.499 386.114 129.348 384.952 129.574 383.833L131.841 372.491Z" fill="#3F3D56"/>
<path d="M90.5847 374.286C90.5847 374.286 76.2346 377.278 75.6367 374.286C75.2543 372.426 74.6522 370.618 73.8429 368.901C73.8429 368.901 60.8615 369.442 64.2225 380.821C64.5679 381.968 65.3252 382.945 66.3482 383.566C69.4618 385.472 76.725 389.926 80.4201 392.237C83.4708 394.146 87.9809 392.403 90.8479 390.89C91.6443 390.474 92.2848 389.811 92.6734 389C93.0621 388.189 93.1781 387.275 93.0041 386.392L90.5847 374.286Z" fill="#3F3D56"/>
<path d="M72.6471 170.239C72.6471 170.239 71.4513 179.214 74.4409 182.805C77.4305 186.395 82.2138 200.158 82.2138 200.158V214.519C82.2138 214.519 63.6783 197.764 60.0908 186.993C56.5033 176.223 60.0908 167.845 60.0908 167.845L72.6471 170.239Z" fill="#FFC1C7"/>
<path d="M114.501 96.6382C122.757 96.6382 129.449 89.9406 129.449 81.6787C129.449 73.4168 122.757 66.7192 114.501 66.7192C106.246 66.7192 99.5535 73.4168 99.5535 81.6787C99.5535 89.9406 106.246 96.6382 114.501 96.6382Z" fill="#FFC1C7"/>
<path d="M126.46 87.6625C126.46 87.6625 122.274 106.811 126.46 109.204C130.645 111.598 101.347 109.204 101.347 109.204C101.347 109.204 107.924 93.0479 104.935 87.6625C101.945 82.2771 126.46 87.6625 126.46 87.6625Z" fill="#FFC1C7"/>
<path d="M140.81 215.117C140.81 215.117 146.191 222.896 144.397 246.831C142.604 270.766 140.81 295.898 140.81 295.898C140.81 295.898 153.964 371.294 149.779 373.089C145.593 374.884 131.841 376.679 130.047 374.884C128.254 373.089 119.883 303.079 119.883 303.079L112.11 245.634L100.151 311.456C100.151 311.456 93.5743 375.483 88.7909 378.475C85.3714 380.613 78.5908 379.083 75.0021 378.036C74.329 377.842 73.7405 377.428 73.3312 376.859C72.9218 376.291 72.7154 375.601 72.7451 374.901C73.1834 364.832 75.1515 325.095 79.8221 300.685C85.2034 272.562 74.4409 216.314 84.0076 215.117C93.5743 213.92 140.81 215.117 140.81 215.117Z" fill="#2F2E41"/>
<path d="M98.9555 106.811C98.9555 106.811 101.347 96.0398 110.316 97.2366C119.285 98.4333 125.264 97.8349 127.058 103.819C128.851 109.803 147.985 114.59 147.985 114.59C147.985 114.59 152.768 115.188 152.17 122.967C151.572 130.746 139.614 159.468 139.614 159.468C139.614 159.468 140.212 183.403 143.202 194.174C146.191 204.945 146.191 218.109 139.614 221.101C133.037 224.093 91.7805 234.864 82.2138 221.699C82.2138 221.699 76.8325 202.551 80.4201 194.772C84.0076 186.993 79.8221 156.476 79.8221 156.476L68.4617 131.344C68.4617 131.344 72.0492 119.377 82.2138 115.786C88.2293 113.69 93.8787 110.661 98.9555 106.811Z" fill="#3F3D56"/>
<path d="M73.245 125.959L68.4617 131.344C68.4617 131.344 54.1116 166.648 58.2971 170.239C62.4825 173.829 74.4409 176.223 75.0388 175.624C75.6367 175.026 85.8013 144.508 85.8013 144.508L73.245 125.959Z" fill="#3F3D56"/>
<path d="M131.841 72.703C131.841 72.703 129.449 74.4982 128.851 78.6868C128.254 82.8755 124.582 76.3001 123.727 84.9732C122.872 93.6463 108.522 99.6301 103.141 95.4414C97.7597 91.2528 88.7909 64.9241 101.347 60.7354C113.904 56.5468 126.46 57.1452 128.851 61.3338C131.243 65.5225 131.841 72.703 131.841 72.703Z" fill="#2F2E41"/>
<path opacity="0.1" d="M120.14 84.9732C120.994 76.3001 124.666 82.8755 125.264 78.6868C125.862 74.4982 128.254 72.703 128.254 72.703C128.254 72.703 127.656 65.5225 125.264 61.3338C124.12 59.3297 120.645 58.1501 115.96 57.9209C122.424 57.6246 127.431 58.8458 128.851 61.3338C131.243 65.5225 131.841 72.703 131.841 72.703C131.841 72.703 129.449 74.4982 128.851 78.6868C128.254 82.8755 124.582 76.3001 123.727 84.9732C123.002 92.3261 112.58 97.7431 106.144 96.6705C112.278 95.8276 119.539 91.0672 120.14 84.9732Z" fill="black"/>
</g>
<defs>
<clipPath id="clip0">
<rect width="632" height="406" fill="white"/>
</clipPath>
</defs>
</svg>
